<?xml version="1.0" encoding="UTF-8" standalone="no"?>
<svg
   xmlns:dc="http://purl.org/dc/elements/1.1/"
   xmlns:cc="http://creativecommons.org/ns#"
   xmlns:rdf="http://www.w3.org/1999/02/22-rdf-syntax-ns#"
   xmlns:svg="http://www.w3.org/2000/svg"
   xmlns="http://www.w3.org/2000/svg"
   xmlns:sodipodi="http://sodipodi.sourceforge.net/DTD/sodipodi-0.dtd"
   xmlns:inkscape="http://www.inkscape.org/namespaces/inkscape"
   viewBox="0 0 706.00299 1016.7196"
   version="1.1"
   id="svg577"
   sodipodi:docname="Homepage.svg"
   inkscape:version="0.92.3 (2405546, 2018-03-11)"
   width="706.00299"
   height="1016.7196">
  <metadata
     id="metadata581">
    <rdf:RDF>
      <cc:Work
         rdf:about="">
        <dc:format>image/svg+xml</dc:format>
        <dc:type
           rdf:resource="http://purl.org/dc/dcmitype/StillImage" />
        <dc:title></dc:title>
      </cc:Work>
    </rdf:RDF>
  </metadata>
  <sodipodi:namedview
     pagecolor="#ffffff"
     bordercolor="#666666"
     borderopacity="1"
     objecttolerance="10"
     gridtolerance="10"
     guidetolerance="10"
     inkscape:pageopacity="0"
     inkscape:pageshadow="2"
     inkscape:window-width="1920"
     inkscape:window-height="1001"
     id="namedview579"
     showgrid="false"
     inkscape:zoom="0.67816092"
     inkscape:cx="493.1279"
     inkscape:cy="555.72779"
     inkscape:window-x="-9"
     inkscape:window-y="-9"
     inkscape:window-maximized="1"
     inkscape:current-layer="svg577"
     fit-margin-top="0"
     fit-margin-left="0"
     fit-margin-right="0"
     fit-margin-bottom="0" />
  <defs
     id="defs40">
    <style
       id="style2">
      .cls-1 {
        clip-path: url(#clip-Homepage);
      }

      .cls-2, .cls-48, .cls-52, .cls-57, .cls-74 {
        fill: #1f72ff;
      }

      .cls-3, .cls-4, .cls-6, .cls-69 {
        fill: #404040;
      }

      .cls-3, .cls-5, .cls-51, .cls-57, .cls-60, .cls-61, .cls-62, .cls-72, .cls-84, .cls-90 {
        font-size: 23px;
      }

      .cls-3, .cls-5, .cls-61, .cls-62, .cls-66, .cls-67, .cls-69, .cls-87 {
        font-family: Raleway-Medium, Raleway;
        font-weight: 500;
      }

      .cls-16, .cls-5, .cls-60, .cls-61, .cls-72, .cls-73, .cls-77, .cls-79, .cls-89, .cls-90, .cls-92, .cls-93 {
        fill: #fff;
      }

      .cls-6 {
        font-size: 87px;
        font-family: Raleway-Light, Raleway;
        font-weight: 300;
      }

      .cls-7, .cls-71 {
        fill: #f2f2f2;
      }

      .cls-8 {
        fill: #b5b3b3;
      }

      .cls-9 {
        fill: #ececec;
      }

      .cls-10 {
        fill: #efbee1;
        opacity: 0.233;
      }

      .cls-11 {
        fill: #f06;
      }

      .cls-11, .cls-12, .cls-13 {
        opacity: 0.137;
      }

      .cls-12 {
        fill: #668000;
      }

      .cls-13 {
        fill: #80a;
      }

      .cls-14, .cls-38 {
        fill: #f9f9f9;
      }

      .cls-15 {
        opacity: 0.05;
      }

      .cls-17 {
        fill: #fafafa;
      }

      .cls-17, .cls-38 {
        opacity: 0.41;
      }

      .cls-18 {
        fill: #c3d0d9;
      }

      .cls-19 {
        fill: #9fc3dd;
      }

      .cls-20 {
        fill: #d88f69;
      }

      .cls-21 {
        fill: #92b5cd;
      }

      .cls-22 {
        fill: #f3a984;
      }

      .cls-23 {
        fill: #e6e6e6;
      }

      .cls-24 {
        fill: #f6b795;
      }

      .cls-25, .cls-27 {
        fill: #ccc;
      }

      .cls-26 {
        fill: #b3b3b3;
        opacity: 0.655;
      }

      .cls-27 {
        opacity: 0.163;
      }

      .cls-28 {
        fill: #ffcda8;
      }

      .cls-29 {
        fill: #726f78;
      }

      .cls-30 {
        fill: #784421;
      }

      .cls-31 {
        fill: #42cd76;
      }

      .cls-32 {
        fill: #f6f6f6;
      }

      .cls-33 {
        fill: #e2e2e2;
      }

      .cls-34 {
        fill: #393939;
      }

      .cls-35 {
        fill: #ffd42a;
      }

      .cls-36 {
        fill: #cd4250;
      }

      .cls-37 {
        fill: #79391d;
      }

      .cls-39 {
        fill: #cd9465;
      }

      .cls-40 {
        fill: #d09963;
      }

      .cls-41 {
        fill: #999;
      }

      .cls-42 {
        fill: #a00;
      }

      .cls-43 {
        fill: #450;
      }

      .cls-44 {
        fill: #800066;
      }

      .cls-45 {
        fill: #fc0;
      }

      .cls-46 {
        fill: #4c2d0f;
      }

      .cls-47 {
        fill: #dfdfdf;
      }

      .cls-48, .cls-79, .cls-85 {
        font-size: 74px;
        font-family: Raleway-Regular, Raleway;
      }

      .cls-49, .cls-54, .cls-55, .cls-58, .cls-59, .cls-65, .cls-78, .cls-80, .cls-81, .cls-83, .cls-91, .cls-95 {
        fill: none;
      }

      .cls-49, .cls-65 {
        stroke: #707070;
      }

      .cls-49 {
        opacity: 0.23;
      }

      .cls-50, .cls-53 {
        fill: #2d2d2d;
      }

      .cls-50, .cls-86 {
        font-size: 26px;
      }

      .cls-50, .cls-53, .cls-57, .cls-88, .cls-89, .cls-93 {
        font-family: Raleway-SemiBold, Raleway;
      }

      .cls-50, .cls-53, .cls-57, .cls-84, .cls-88, .cls-89, .cls-90, .cls-93 {
        font-weight: 600;
      }

      .cls-51, .cls-70 {
        fill: #777;
      }

      .cls-51, .cls-60, .cls-72, .cls-86 {
        font-family: OpenSans-Regular, Open Sans;
      }

      .cls-51 {
        opacity: 0.64;
      }

      .cls-52 {
        stroke: #74dad4;
      }

      .cls-52, .cls-54, .cls-73, .cls-74, .cls-75 {
        stroke-linecap: round;
      }

      .cls-53 {
        font-size: 25px;
      }

      .cls-54, .cls-58, .cls-59, .cls-73, .cls-74, .cls-75, .cls-78, .cls-80, .cls-81, .cls-91 {
        stroke: #fff;
      }

      .cls-54, .cls-73, .cls-74, .cls-75 {
        stroke-linejoin: round;
        stroke-width: 5px;
      }

      .cls-55 {
        stroke: #e1e1e1;
      }

      .cls-56 {
        fill: #181818;
        opacity: 0;
      }

      .cls-58 {
        opacity: 0.55;
      }

      .cls-59 {
        stroke-width: 1.8px;
      }

      .cls-60, .cls-81 {
        opacity: 0.54;
      }

      .cls-61, .cls-86 {
        opacity: 0.59;
      }

      .cls-62, .cls-64 {
        fill: gray;
      }

      .cls-63 {
        opacity: 0.87;
      }

      .cls-66, .cls-67 {
        fill: #aaa;
      }

      .cls-66 {
        font-size: 346px;
        opacity: 0.42;
      }

      .cls-67 {
        font-size: 348px;
      }

      .cls-67, .cls-78 {
        opacity: 0.48;
      }

      .cls-68 {
        fill: #4e4e4e;
      }

      .cls-69 {
        font-size: 27px;
      }

      .cls-71 {
        stroke: #dedede;
      }

      .cls-75 {
        fill: #499483;
      }

      .cls-76 {
        fill: #045cf2;
      }

      .cls-77 {
        stroke: #000;
      }

      .cls-80 {
        opacity: 0.72;
      }

      .cls-82 {
        fill: #333;
      }

      .cls-83 {
        stroke: #343434;
        opacity: 0.17;
      }

      .cls-84 {
        fill: #838383;
      }

      .cls-84, .cls-90 {
        font-family: OpenSans-SemiBold, Open Sans;
      }

      .cls-85 {
        fill: #5c5c5c;
      }

      .cls-87 {
        font-size: 52px;
      }

      .cls-87, .cls-88 {
        opacity: 0.63;
      }

      .cls-88, .cls-89 {
        font-size: 19px;
      }

      .cls-91 {
        opacity: 0.35;
      }

      .cls-92 {
        opacity: 0.24;
      }

      .cls-93 {
        font-size: 18px;
      }

      .cls-94 {
        stroke: none;
      }

      .cls-96 {
        filter: url(#Rectangle_96);
      }

      .cls-97 {
        filter: url(#Rectangle_95);
      }

      .cls-98 {
        filter: url(#Rectangle_91);
      }
    </style>
    <filter
       id="Rectangle_91"
       x="369"
       y="3952.4351"
       width="362.65302"
       height="344.21399"
       filterUnits="userSpaceOnUse">
      <feOffset
         dy="3"
         input="SourceAlpha"
         id="feOffset4" />
      <feGaussianBlur
         stdDeviation="3"
         result="blur"
         id="feGaussianBlur6" />
      <feFlood
         flood-opacity="0.161"
         id="feFlood8" />
      <feComposite
         operator="in"
         in2="blur"
         id="feComposite10"
         result="result1" />
      <feComposite
         in="SourceGraphic"
         in2="result1"
         id="feComposite12" />
    </filter>
    <filter
       id="Rectangle_95"
       x="778.89502"
       y="3952.4351"
       width="362.65302"
       height="344.21399"
       filterUnits="userSpaceOnUse">
      <feOffset
         dy="3"
         input="SourceAlpha"
         id="feOffset15" />
      <feGaussianBlur
         stdDeviation="3"
         result="blur-2"
         id="feGaussianBlur17" />
      <feFlood
         flood-opacity="0.161"
         id="feFlood19" />
      <feComposite
         operator="in"
         in2="blur-2"
         id="feComposite21"
         result="result1" />
      <feComposite
         in="SourceGraphic"
         in2="result1"
         id="feComposite23" />
    </filter>
    <filter
       id="Rectangle_96"
       x="1188.791"
       y="3952.4351"
       width="362.65302"
       height="344.21399"
       filterUnits="userSpaceOnUse">
      <feOffset
         dy="3"
         input="SourceAlpha"
         id="feOffset26" />
      <feGaussianBlur
         stdDeviation="3"
         result="blur-3"
         id="feGaussianBlur28" />
      <feFlood
         flood-opacity="0.161"
         id="feFlood30" />
      <feComposite
         operator="in"
         in2="blur-3"
         id="feComposite32"
         result="result1" />
      <feComposite
         in="SourceGraphic"
         in2="result1"
         id="feComposite34" />
    </filter>
    <clipPath
       id="clip-Homepage">
      <rect
         width="1920"
         height="5568"
         id="rect37"
         x="0"
         y="0" />
    </clipPath>
  </defs>
  <g
     id="g6184"
     transform="translate(-907.843,-200.41698)">
    <path
       id="path910"
       class="cls-8"
       d="m 1321.368,224.963 c 0,0.611 -0.37,0.893 -0.824,0.63 a 1.982,1.982 0 0 1 -0.824,-1.582 c 0,-0.611 0.37,-0.893 0.824,-0.63 a 1.982,1.982 0 0 1 0.824,1.582 z"
       inkscape:connector-curvature="0"
       style="fill:#b5b3b3" />
    <path
       id="rect912"
       class="cls-8"
       d="m 1304.342,213.975 13.95,8.054 a 1.17,1.17 0 0 1 0.49,0.935 c 0,0.362 -0.218,0.527 -0.49,0.371 l -13.95,-8.05 a 1.17,1.17 0 0 1 -0.49,-0.935 c 0,-0.365 0.219,-0.531 0.49,-0.375 z"
       inkscape:connector-curvature="0"
       style="fill:#b5b3b3" />
    <path
       style="fill:#ececec"
       inkscape:connector-curvature="0"
       d="m 1141.773,1024.353 0.01,6.054 144.441,82.57 124.107,-73.707 -0.02,-5.727 -124.083,73.309 z"
       class="cls-9"
       id="path1512" />
    <path
       style="fill:#ececec"
       inkscape:connector-curvature="0"
       d="m 1141.773,1088.903 0.01,6.054 144.441,82.57 124.107,-73.707 -0.02,-5.727 -124.086,73.312 z"
       class="cls-9"
       id="path1514" />
    <path
       style="opacity:0.23299997;fill:#efbee1"
       inkscape:connector-curvature="0"
       d="m 1030.698,301.859 -2.527,1.527 -75.413,45.572 c -4.019,2.224 -6.721,7.492 -6.787,12.486 l -0.959,71.725 c -0.033,2.5 0.658,4.63 2.241,5.9 a 5.317,5.317 0 0 0 5.919,0.165 l 0.028,-0.015 75.441,-45.59 c 4.019,-2.224 6.721,-7.491 6.787,-12.486 l 0.959,-71.719 c 0.033,-2.5 -0.66,-4.633 -2.243,-5.906 a 4.623,4.623 0 0 0 -3.458,-0.8 z m 0.529,3.884 a 1.3,1.3 0 0 1 0.866,0.327 c 0.49,0.394 1.047,1.462 1.023,3.311 l -0.96,71.722 c -0.05,3.7 -2.651,8.312 -5.1,9.668 l -0.025,0.015 -75.443,45.591 v 0 c -1.223,0.676 -1.794,0.546 -2.284,0.152 -0.49,-0.394 -1.045,-1.462 -1.02,-3.311 l 0.957,-71.724 c 0.049,-3.7 2.651,-8.313 5.1,-9.668 l 0.028,-0.015 75.426,-45.58 0.015,-0.008 a 3.086,3.086 0 0 1 1.418,-0.476 z"
       class="cls-10"
       id="rect1224-2" />
    <path
       style="opacity:0.13699999;fill:#ff0066"
       inkscape:connector-curvature="0"
       d="m 986.272,351.853 c -3.532,2.03 -7.09,7.635 -7.193,14.38 -0.179,11.679 14.232,19.231 14.232,19.231 0,0 14.409,-24.191 14.23,-35.664 -0.207,-13.251 -14.23,-5.985 -14.23,9.111 0,-7.548 -3.506,-9.09 -7.038,-7.059 z"
       class="cls-11"
       id="path1223" />
    <path
       style="opacity:0.13699999;fill:#668000"
       inkscape:connector-curvature="0"
       d="m 1018.16,363.968 c 0,9.376 -5.46,20.129 -12.2,24.018 -6.74,3.889 -12.2,-0.559 -12.2,-9.935 0,-9.376 5.46,-20.129 12.2,-24.018 6.74,-3.889 12.2,0.559 12.2,9.935 z"
       class="cls-12"
       id="path1230" />
    <path
       style="fill:#f2f2f2"
       inkscape:connector-curvature="0"
       d="m 1378.653,460.299 1.257,431.737 -125.2,80.115 -6.7,-448.408 z"
       class="cls-7"
       id="path1609" />
    <path
       style="fill:#f9f9f9"
       inkscape:connector-curvature="0"
       d="m 1110.361,448.478 v 444.551 l 144.345,79.118 V 529.302 Z"
       class="cls-14"
       id="path1611" />
    <path
       style="fill:#ececec"
       inkscape:connector-curvature="0"
       d="m 1110.37,505.806 0.01,6.054 144.441,82.57 124.107,-73.707 -0.02,-5.726 -124.086,73.308 z"
       class="cls-9"
       id="path1615" />
    <path
       style="fill:#ececec"
       inkscape:connector-curvature="0"
       d="m 1110.37,570.361 0.01,6.054 144.441,82.57 124.107,-73.707 -0.02,-5.726 -124.086,73.308 z"
       class="cls-9"
       id="path1617" />
    <path
       style="fill:#ececec"
       inkscape:connector-curvature="0"
       d="m 1110.37,634.916 0.01,6.054 144.441,82.57 124.107,-73.707 -0.02,-5.726 -124.086,73.308 z"
       class="cls-9"
       id="path1619" />
    <path
       style="fill:#ececec"
       inkscape:connector-curvature="0"
       d="m 1110.37,699.466 0.01,6.054 144.441,82.57 124.107,-73.707 -0.02,-5.726 -124.086,73.308 z"
       class="cls-9"
       id="path1621" />
    <path
       style="fill:#ececec"
       inkscape:connector-curvature="0"
       d="m 1110.37,764.02 0.01,6.054 144.441,82.57 124.107,-73.707 -0.02,-5.726 -124.086,73.308 z"
       class="cls-9"
       id="path1623" />
    <path
       style="fill:#ececec"
       inkscape:connector-curvature="0"
       d="m 1110.37,828.575 0.01,6.054 144.441,82.57 124.107,-73.707 -0.02,-5.726 -124.086,73.309 z"
       class="cls-9"
       id="path1625" />
    <path
       style="fill:#f2f2f2"
       inkscape:connector-curvature="0"
       d="m 1612.495,589.383 -130.646,63.439 6.758,425.1 c 0.646,0.018 1.31,0.02 2.012,-0.021 a 28.157,28.157 0 0 0 9.376,-2.763 l 106.583,-68.2 c 1.878,-1.531 4.178,-3.639 5.23,-5.653 1.225,-2.346 1.778,-5.99 2.038,-8.331 z"
       class="cls-7"
       id="path1553" />
    <path
       style="fill:#f9f9f9"
       inkscape:connector-curvature="0"
       d="m 1344.208,577.557 1.382,414.824 129.84,80.467 c 0,0 7.153,4.188 13.419,4.349 l -0.3,-418.817 z"
       class="cls-14"
       id="path1555" />
    <path
       style="fill:#ececec"
       inkscape:connector-curvature="0"
       d="m 1344.218,634.886 0.015,6.054 144.441,82.57 124.108,-73.707 -0.02,-5.726 -124.087,73.308 z"
       class="cls-9"
       id="path1559" />
    <path
       style="fill:#ececec"
       inkscape:connector-curvature="0"
       d="m 1344.218,699.441 0.015,6.054 144.441,82.57 124.108,-73.707 -0.02,-5.726 -124.087,73.308 z"
       class="cls-9"
       id="path1561" />
    <path
       style="fill:#ececec"
       inkscape:connector-curvature="0"
       d="m 1344.218,763.991 0.015,6.054 144.441,82.57 124.107,-73.707 -0.02,-5.726 -124.086,73.308 z"
       class="cls-9"
       id="path1563" />
    <path
       style="fill:#ececec"
       inkscape:connector-curvature="0"
       d="m 1344.218,828.546 0.015,6.054 144.441,82.57 124.108,-73.707 -0.02,-5.726 -124.087,73.308 z"
       class="cls-9"
       id="path1565" />
    <path
       style="fill:#ececec"
       inkscape:connector-curvature="0"
       d="m 1344.218,893.1 0.015,6.054 144.441,82.57 124.108,-73.707 -0.02,-5.726 -124.087,73.308 z"
       class="cls-9"
       id="path1567" />
    <path
       style="fill:#ececec"
       inkscape:connector-curvature="0"
       d="m 1344.218,957.65 0.015,6.054 144.441,82.57 124.107,-73.707 -0.02,-5.726 -124.086,73.311 z"
       class="cls-9"
       id="path1569" />
    <path
       style="opacity:0.05"
       inkscape:connector-curvature="0"
       d="m 1111.077,505.703 65.895,423.86 77.843,42.67 V 588.289 l -56.226,-32.306 V 507.09 l -47.15,21.806 z"
       class="cls-15"
       id="path2307" />
    <path
       style="fill:#f2f2f2"
       inkscape:connector-curvature="0"
       d="m 1176.131,572.467 -130.639,63.444 6.64,444.634 c 0.429,0 0.868,-0.014 1.32,-0.041 a 26.151,26.151 0 0 0 8.218,-2.258 l 115.722,-74.046 z"
       class="cls-7"
       id="path1581" />
    <path
       style="fill:#f9f9f9"
       inkscape:connector-curvature="0"
       d="m 907.843,560.644 v 442.36 a 12.968,12.968 0 0 0 0.791,2.045 4.6,4.6 0 0 0 0.713,0.97 l 124.879,68.448 -2.108,-1.975 9.543,5.131 a 18.083,18.083 0 0 0 10.526,2.919 V 641.468 Z"
       class="cls-14"
       id="path1583" />
    <path
       style="fill:#ececec"
       inkscape:connector-curvature="0"
       d="m 907.853,617.975 0.01,6.054 144.445,82.57 124.1,-73.707 -0.021,-5.726 -124.079,73.308 z"
       class="cls-9"
       id="path1587" />
    <path
       style="fill:#ececec"
       inkscape:connector-curvature="0"
       d="m 907.853,682.53 0.01,6.054 144.445,82.569 124.1,-73.708 -0.021,-5.726 -124.079,73.31 z"
       class="cls-9"
       id="path1589" />
    <path
       style="fill:#ececec"
       inkscape:connector-curvature="0"
       d="m 907.853,747.079 0.01,6.054 144.445,82.57 124.1,-73.707 -0.021,-5.726 -124.079,73.308 z"
       class="cls-9"
       id="path1591" />
    <path
       style="fill:#ececec"
       inkscape:connector-curvature="0"
       d="m 907.853,811.634 0.01,6.053 144.445,82.571 124.1,-73.707 -0.021,-5.726 -124.079,73.308 z"
       class="cls-9"
       id="path1593" />
    <path
       style="fill:#ececec"
       inkscape:connector-curvature="0"
       d="m 907.853,876.184 0.01,6.054 144.445,82.57 124.1,-73.707 -0.021,-5.726 -124.079,73.308 z"
       class="cls-9"
       id="path1595" />
    <path
       style="fill:#ececec"
       inkscape:connector-curvature="0"
       d="m 907.853,940.734 0.01,6.054 144.445,82.569 124.1,-73.706 -0.021,-5.726 -124.079,73.311 z"
       class="cls-9"
       id="path1597" />
    <path
       style="opacity:0.05"
       inkscape:connector-curvature="0"
       d="m 1344.83,634.67 48.925,389.568 13.052,6.959 9.161,4.885 55.989,36.124 7.186,2.923 a 17.9,17.9 0 0 0 9.858,2.907 l -0.436,-360.78 -56.225,-32.309 v -48.89 l -47.149,21.808 z"
       class="cls-15"
       id="path2300" />
    <path
       style="fill:#f2f2f2"
       inkscape:connector-curvature="0"
       d="m 1410.052,708.812 -130.646,63.445 6.647,444.874 c 0.559,0.01 1.131,0.01 1.732,-0.03 a 22.536,22.536 0 0 0 6.073,-1.4 l 108.061,-69.147 c 1.721,-1.266 5.6,-4.314 7.055,-7.089 1.875,-3.592 2.259,-10.552 2.259,-10.552 l 0.044,0.637 z"
       class="cls-7"
       id="path994" />
    <path
       style="fill:#f9f9f9"
       inkscape:connector-curvature="0"
       d="m 1141.762,696.991 v 433.239 l 0.088,-1.32 c 0,0 0.382,6.961 2.258,10.552 1.839,3.52 7.64,7.516 7.868,7.671 l 116.529,63.875 -2.055,-1.923 9.543,5.132 a 17.987,17.987 0 0 0 10.112,2.913 V 777.815 Z"
       class="cls-14"
       id="path996" />
    <path
       style="fill:#ececec"
       inkscape:connector-curvature="0"
       d="m 1141.773,754.325 0.01,6.054 144.441,82.57 124.107,-73.707 -0.02,-5.726 -124.086,73.308 z"
       class="cls-9"
       id="path1492" />
    <path
       style="fill:#ececec"
       inkscape:connector-curvature="0"
       d="m 1141.773,818.875 0.01,6.054 144.441,82.57 124.107,-73.707 -0.02,-5.726 -124.083,73.308 z"
       class="cls-9"
       id="path1506" />
    <path
       style="fill:#ececec"
       inkscape:connector-curvature="0"
       d="m 1141.773,883.429 0.01,6.053 144.441,82.57 124.107,-73.706 -0.02,-5.726 -124.086,73.308 z"
       class="cls-9"
       id="path1508" />
    <path
       style="fill:#ececec"
       inkscape:connector-curvature="0"
       d="m 1141.773,945.025 0.01,6.054 144.441,82.57 124.107,-73.707 -0.02,-5.726 -124.086,73.308 z"
       class="cls-9"
       id="path1510" />
    <path
       style="fill:#ececec"
       inkscape:connector-curvature="0"
       d="m 1141.773,1011.507 0.01,6.054 144.441,82.57 124.107,-73.707 -0.02,-5.726 -124.086,73.308 z"
       class="cls-9"
       data-name="path1510"
       id="path1510-2" />
    <path
       style="fill:#ececec"
       inkscape:connector-curvature="0"
       d="m 1141.773,1075.034 0.01,6.054 144.441,82.57 124.107,-73.707 -0.02,-5.726 -124.086,73.308 z"
       class="cls-9"
       data-name="path1510"
       id="path1510-3" />
    <path
       style="fill:#ffffff"
       inkscape:connector-curvature="0"
       d="m 1232.774,376.979 a 26.588,26.588 0 0 0 -12.574,2.977 l -104.605,59.628 c -7.741,4.411 -6.777,12.067 2.164,17.16 l 39.847,22.716 -69.96,39.876 -39.847,-22.716 c -8.937,-5.094 -22.365,-5.646 -30.106,-1.233 l -104.609,59.63 c -7.74,4.413 -6.776,12.065 2.161,17.16 l 120.8,68.86 c 8.937,5.094 22.362,5.643 30.1,1.232 l 33.863,-19.3 80.79,46.05 -33.865,19.3 c -7.741,4.413 -6.777,12.068 2.163,17.164 l 120.8,68.856 c 8.937,5.094 22.363,5.643 30.1,1.232 l 104.605,-59.629 c 7.741,-4.411 6.78,-12.064 -2.16,-17.16 l -39.853,-22.718 69.954,-39.876 39.859,22.72 c 8.937,5.1 22.363,5.643 30.1,1.232 l 104.609,-59.632 c 7.739,-4.412 6.777,-12.064 -2.164,-17.16 l -120.8,-68.86 c -8.937,-5.094 -22.363,-5.642 -30.1,-1.23 l -33.857,19.3 -80.79,-46.05 33.86,-19.3 c 7.739,-4.412 6.78,-12.064 -2.162,-17.16 l -120.8,-68.857 a 35.454,35.454 0 0 0 -17.523,-4.212 z m -30.862,127.736 36.641,20.888 c 8.938,5.094 22.365,5.643 30.108,1.232 l 32.373,-18.456 80.787,46.05 -32.378,18.457 v 0 c -7.741,4.413 -6.777,12.065 2.163,17.161 l 36.638,20.889 -69.955,39.876 -36.642,-20.887 c -8.937,-5.094 -22.362,-5.646 -30.1,-1.233 l -32.379,18.454 -80.787,-46.048 32.372,-18.456 c 7.739,-4.413 6.777,-12.067 -2.164,-17.163 l -36.636,-20.885 z"
       class="cls-16"
       id="rect964" />
    <path
       style="opacity:0.41000001;fill:#fafafa"
       inkscape:connector-curvature="0"
       d="m 1279.081,735.645 c 0,0 65.381,-36.269 66.981,-42.824 1.6,-6.555 -7.332,-13.849 -7.872,-16.46 -0.54,-2.521 15.467,-9.457 8.222,-16.6 -7.245,-7.143 -24.82,0.441 -26.981,-0.639 -2.161,-1.08 -11.2,-7.416 -11.2,-7.416 l -85.815,35.44 z"
       class="cls-17"
       id="path1374" />
    <path
       style="opacity:0.41000001;fill:#fafafa"
       inkscape:connector-curvature="0"
       d="m 1302.806,411.115 -62.934,33.783 5.09,9.5 68.894,-36.986 z m 22.192,12.65 -66.955,35.935 5.1,9.5 72.9,-39.137 z"
       class="cls-17"
       id="path1337" />
    <path
       style="opacity:0.41000001;fill:#fafafa"
       inkscape:connector-curvature="0"
       d="m 1523.46,536.896 -54.423,29.217 5.09,9.5 60.383,-32.416 z m 32.683,18.631 -62.958,33.796 5.1,9.49 68.9,-36.99 z"
       class="cls-17"
       id="path1333" />
    <path
       style="fill:#c3d0d9"
       inkscape:connector-curvature="0"
       d="m 1240.574,814.598 -20.126,0.531 c 0,0 -9.68,5.841 -11.346,8.512 a 9.142,9.142 0 0 0 -1.521,4.533 l -0.05,0.015 c 0,0 -0.677,3.346 4.039,4.05 a 15.159,15.159 0 0 0 13.009,-3.76 c 3.518,-3.379 4.964,-5.05 5.58,-5.256 0.616,-0.206 1.265,1 1.265,1 0,0 6.226,-1.38 7.337,-2.173 0.941,-0.671 1.14,-2.7 1.182,-3.335 a 37.717,37.717 0 0 0 0.631,-4.119 z"
       class="cls-18"
       id="path991" />
    <path
       style="fill:#9fc3dd"
       inkscape:connector-curvature="0"
       d="m 1260.624,714.158 c 0,0 -46.026,26.284 -46.026,31.844 0,5.56 1.6,69.172 1.6,69.172 0,0 7.395,4.252 13.7,3.824 6.305,-0.428 11.457,-4.76 11.457,-4.76 0,0 -0.966,-16.926 -1.588,-29.643 -0.622,-12.717 -1.6,-28.384 -1.6,-28.384 l 32.914,-20.521 z"
       class="cls-19"
       id="path978" />
    <path
       style="fill:#c3d0d9"
       inkscape:connector-curvature="0"
       d="m 1208.319,796.584 -20.126,0.531 c 0,0 -9.68,5.841 -11.346,8.512 a 9.14,9.14 0 0 0 -1.519,4.533 l -0.053,0.015 c 0,0 -0.677,3.346 4.039,4.05 a 15.164,15.164 0 0 0 13.011,-3.76 c 3.518,-3.379 4.962,-5.05 5.578,-5.256 0.616,-0.206 1.265,1 1.265,1 0,0 6.226,-1.38 7.337,-2.173 0.941,-0.671 1.14,-2.7 1.182,-3.334 a 37.721,37.721 0 0 0 0.631,-4.119 z"
       class="cls-18"
       id="path984" />
    <path
       style="fill:#9fc3dd"
       inkscape:connector-curvature="0"
       d="m 1189.295,720.174 c 0,0 -6.53,2.835 -6.53,8.4 0,5.565 1.6,69.172 1.6,69.172 0,0 7.395,4.252 13.7,3.825 6.305,-0.427 11.457,-4.76 11.457,-4.76 0,0 -0.966,-17.238 -1.588,-29.955 -0.622,-12.717 -1.6,-28.071 -1.6,-28.071 l 9.556,-3.336 z"
       class="cls-19"
       id="path971" />
    <path
       style="fill:#9fc3dd"
       inkscape:connector-curvature="0"
       d="m 1286.318,616.534 c 0,0 11.448,11.366 16.555,15.619 5.107,4.253 6.011,4.034 6.276,5.53 0.265,1.496 -16.828,43.09 -18,48.347 -1.172,5.257 -0.763,17.613 -1.831,24.825 -1.068,7.212 -5.722,23.24 -11.776,26.332 -6.054,3.092 -15.348,-9.436 -21.985,-11.09 -23.464,-5.845 12.157,-42.641 17.62,-64.243 5.432,-21.48 10.434,-32.233 11.867,-36.883 a 27.692,27.692 0 0 0 1.271,-8.437 z"
       class="cls-19"
       id="path1016" />
    <path
       style="fill:#9fc3dd"
       inkscape:connector-curvature="0"
       d="m 1245.715,678.909 c 0,0 -6.423,9.452 -7.959,11.928 -1.536,2.476 -2.017,2.325 -2.017,2.325 a 8.407,8.407 0 0 0 -6,-4.7 c -4.406,-0.809 -7.326,-1.314 -7.326,-1.314 0,0 16.563,-26.89 17.838,-32.754 1.275,-5.864 5.521,-30.832 6.795,-33.461 1.274,-2.629 3.61,-5.358 5.627,-6.167 2.017,-0.809 7.644,-1.314 7.644,-1.314 4.79,-0.062 -3.115,28.616 -5.946,34.169 -8.317,16.316 1.909,91.525 -21.326,58.769 -0.74,-1.045 12.673,-27.476 12.673,-27.476 z"
       class="cls-19"
       id="path1028" />
    <path
       style="fill:#d88f69"
       inkscape:connector-curvature="0"
       d="m 1266.274,628.126 c 0,0 2.027,5.433 2.065,5.576 0.038,0.143 10.774,-2.252 12.913,-6.111 2.139,-3.859 5.3,-10.645 5.3,-10.645 l -2.858,-5.724 -17.606,16.9 z"
       class="cls-20"
       id="path1038" />
    <path
       style="fill:#f9f9f9"
       inkscape:connector-curvature="0"
       d="m 1242,715.512 c 4.292,6.686 24.345,-15.592 25.663,-18.188 1.318,-2.596 2.789,-19.3 5.417,-35.457 2.628,-16.157 11.112,-31.524 11.937,-36.526 0.825,-5.002 1.277,-8.941 1.277,-8.941 l -8.183,9.364 -10.446,5.492 -1.275,-4.3 a 31.177,31.177 0 0 1 -4.459,0.708 c -1.327,0 -7.093,19.04 -9.05,28.9 -1.957,9.86 -3.453,27.735 -5.1,31.6 -1.647,3.865 -11.716,22.733 -11.716,22.733 z"
       class="cls-14"
       id="path1018" />
    <path
       style="fill:#9fc3dd"
       inkscape:connector-curvature="0"
       d="m 1294.179,683.255 c 0,0 2.755,-23.483 5.307,-34.906 2.552,-11.423 2.341,-17.156 9.454,-11.8 4.24,3.193 3.269,19.491 2.438,31.855 -0.532,7.922 -0.9,11.541 -1.331,14.849 -1.061,8.188 -0.841,9.906 -1.9,10.968 -1.059,1.062 -46.345,19.814 -46.876,18.9 -0.531,-0.914 0.744,-3.489 -0.478,-8.239 -1.222,-4.75 -3.875,-6.066 -3.451,-6.622 0.424,-0.556 36.842,-15.012 36.842,-15.012 z"
       class="cls-19"
       id="path1014" />
    <path
       style="fill:#92b5cd"
       inkscape:connector-curvature="0"
       d="m 1286.324,616.535 5.205,4.646 c 0,0 -1.911,10.311 -2.761,14.962 a 58.938,58.938 0 0 1 -1.486,6.622 l -5.681,1.517 4.3,3.841 -15.662,36.392 c 0,0 1.434,-22.543 6.53,-36.7 5.096,-14.157 9.586,-26.61 9.555,-29.01 -1.6,-2.652 -0.021,-2.273 0,-2.271 z"
       class="cls-21"
       id="path1024" />
    <path
       style="fill:#ffffff"
       inkscape:connector-curvature="0"
       d="m 1267.343,631.062 2.44,8.757 a 33.205,33.205 0 0 0 9.835,-6.612 21.589,21.589 0 0 0 5.893,-10.865 17.939,17.939 0 0 0 0.489,-6 46.082,46.082 0 0 1 -9.159,9.237 42.794,42.794 0 0 1 -9.5,5.488 z"
       class="cls-16"
       id="path1020" />
    <path
       style="fill:#92b5cd"
       inkscape:connector-curvature="0"
       d="m 1267.624,630.962 -5.779,4.47 1.408,4.539 -11.328,51.211 3.133,4.853 4.99,-4.6 6.052,-50.04 3.61,-4.143 z"
       class="cls-21"
       id="path1040" />
    <path
       style="fill:#ffffff"
       inkscape:connector-curvature="0"
       d="m 1261.266,627.678 a 17.637,17.637 0 0 0 -0.716,5.661 24.406,24.406 0 0 0 0.637,3.109 l 6.491,-5.444 a 28.432,28.432 0 0 1 -1.075,-3.5 c 0,-0.531 -0.478,0.075 -2.522,0.3 a 5.974,5.974 0 0 1 -2.814,-0.126 z"
       class="cls-16"
       id="path1022" />
    <path
       style="fill:#92b5cd"
       inkscape:connector-curvature="0"
       d="m 1257.495,623.309 -3.982,3.489 4.619,5.711 -6.741,-1.112 c 0,0 -1.963,20.926 -1.963,29.266 0,8.34 -1.622,25.5 -1.622,25.5 0,0 4.956,-31.023 7.358,-40.031 2.402,-9.008 6.105,-18.455 6.105,-18.455 z"
       class="cls-21"
       id="path1026" />
    <path
       style="fill:#f3a984"
       inkscape:connector-curvature="0"
       d="m 1249.849,607.079 a 62.433,62.433 0 0 0 3.982,11.625 c 2.867,6.318 4.354,10.21 8.706,10.716 0,0 3.983,0.182 5.309,-0.4 5.452,-2.414 8.7,-5.606 12.05,-10.261 3.35,-4.655 3.664,-7.026 3.982,-8.795 -0.02,-2.508 -5.222,-6.987 -4.619,0.1 -1.348,3.685 -2.029,4.382 -2.181,4.447 -0.213,0.051 0.531,-1.567 -3.823,-3.336 -4.354,-1.769 -4.565,-4.6 -4.565,-4.6 a 26.794,26.794 0 0 1 -9.237,2.173 23.877,23.877 0 0 1 -9.609,-1.668 z"
       class="cls-22"
       id="path1030" />
    <path
       inkscape:connector-curvature="0"
       d="m 1257.9,588.002 c 4.676,-3.222 11.882,-4.119 17.048,-1.839 5.166,2.28 7.2,7.849 9.71,13.852 a 12.2,12.2 0 0 1 -0.939,11.012 c 0,0 -0.375,-4.034 -2.853,-3.9 -2.478,0.134 -0.533,3.478 -1.4,5.3 a 4.325,4.325 0 0 1 -2.508,2.277 c 0,0 -1.572,-1.124 -3.355,-2.624 -1.783,-1.5 -2.531,-2.116 -4.34,-3.56 a 50.82,50.82 0 0 1 -12.5,0.214 c -7.7,-0.679 -9.021,-2.966 -9.148,-5.6 -0.127,-2.634 -0.185,-4.824 1.4,-6.867 a 38.342,38.342 0 0 1 8.877,-8.271 z"
       id="path1032" />
    <path
       style="fill:#e6e6e6"
       inkscape:connector-curvature="0"
       d="m 1224.697,702.841 a 6.272,6.272 0 0 0 -2.95,0.675 l -28.43,15.628 c -1.636,0.9 -1.636,2.345 0,3.244 l 38.93,21.4 a 6.794,6.794 0 0 0 5.9,0 l 28.429,-15.628 a 1.963,1.963 0 0 0 1.223,-1.646 l -0.01,-1.627 -0.515,0.545 a 3.134,3.134 0 0 0 -0.7,-0.511 l -38.925,-21.4 a 6.272,6.272 0 0 0 -2.95,-0.675 z"
       class="cls-23"
       id="rect950" />
    <path
       style="fill:#e6e6e6"
       inkscape:connector-curvature="0"
       d="m 1227.651,701.748 38.93,21.4 c 1.636,0.9 1.636,2.345 0,3.244 l -28.429,15.633 a 6.8,6.8 0 0 1 -5.9,0 l -38.93,-21.4 c -1.635,-0.9 -1.635,-2.345 0,-3.244 l 28.428,-15.633 a 6.8,6.8 0 0 1 5.9,0 z"
       class="cls-23"
       id="rect953" />
    <path
       style="fill:#f6b795"
       inkscape:connector-curvature="0"
       d="m 1258.712,700.01 c 0,0 -9.684,-0.327 -13.214,1.108 -3.53,1.435 -9.627,6.187 -9.627,6.187 0,0 -0.327,10.323 0.239,10.537 0.566,0.214 4.883,-2.25 6.5,-3.894 1.617,-1.644 3.829,-2.931 5.068,-2.824 1.239,0.107 2.29,0.179 1.426,0.429 -0.864,0.25 -3.566,2.931 -4.5,4.611 -0.934,1.68 -2.181,3.181 -1.614,3.359 0.567,0.178 2.44,0.893 4.579,-1.715 2.139,-2.608 1.839,-3.681 4.28,-4.075 2.441,-0.394 6.419,-1.359 7.733,-2.181 a 8.465,8.465 0 0 0 1.952,-1.608 30.384,30.384 0 0 0 -1.014,-6.094 21.925,21.925 0 0 0 -1.8,-3.842 z"
       class="cls-24"
       id="path1079" />
    <path
       style="fill:#cccccc"
       inkscape:connector-curvature="0"
       d="m 1189.887,680.345 a 1.418,1.418 0 0 0 -0.475,0.109 v -0.01 l -0.067,0.039 a 1.079,1.079 0 0 0 -0.109,0.059 l -1.206,0.677 0.524,0.664 c 0,0.066 -0.01,0.131 -0.01,0.2 v 34.237 a 5.319,5.319 0 0 0 2.555,4.214 l 42.85,23.551 a 2.781,2.781 0 0 0 0.747,0.289 l -0.265,0.613 1.389,-0.747 -0.018,-0.01 a 1.706,1.706 0 0 0 0.7,-1.548 v -34.237 a 5.318,5.318 0 0 0 -2.555,-4.213 l -42.852,-23.554 a 2.349,2.349 0 0 0 -1.22,-0.333 z"
       class="cls-25"
       id="rect948" />
    <path
       style="fill:#cccccc"
       inkscape:connector-curvature="0"
       d="m 1189.947,681.335 42.85,23.551 a 5.318,5.318 0 0 1 2.555,4.214 v 34.237 c 0,1.556 -1.139,2.181 -2.555,1.4 l -42.85,-23.551 a 5.318,5.318 0 0 1 -2.555,-4.213 V 682.74 c 0,-1.557 1.138,-2.183 2.555,-1.405 z"
       class="cls-25"
       id="rect929" />
    <path
       style="opacity:0.65499998;fill:#b3b3b3"
       inkscape:connector-curvature="0"
       d="m 1214.36,714.682 c 0,2.1 -1.339,3.061 -2.991,2.152 a 6.735,6.735 0 0 1 -2.991,-5.441 c 0,-2.1 1.339,-3.061 2.991,-2.152 a 6.734,6.734 0 0 1 2.991,5.441 z"
       class="cls-26"
       id="path933" />
    <path
       style="fill:#f6b795"
       inkscape:connector-curvature="0"
       d="m 1217.197,695.106 c 0,0 5.636,-7.59 6.406,-7.842 0.77,-0.252 2.894,-0.48 6.61,0.981 3.716,1.461 5.07,3.053 5.234,3.563 0.164,0.51 1.247,4.221 0.584,6.9 a 50.291,50.291 0 0 0 -1.32,5.247 c -0.08,1.112 -0.133,0.809 -0.133,0.809 0,0 -3.208,-1.449 -3.208,-2.03 a 5.174,5.174 0 0 0 0.069,-2.307 c -0.318,-1.162 -0.611,-1.239 -0.849,-0.834 -0.238,0.405 -0.733,2.387 -1.131,2.26 -0.398,-0.127 -12.256,-6.751 -12.256,-6.751 z"
       class="cls-24"
       id="path1081" />
    <path
       style="opacity:0.16300001;fill:#cccccc"
       inkscape:connector-curvature="0"
       d="m 1515.419,316.476 25.5,14.72 a 6.531,6.531 0 0 1 2.736,5.226 v 33.335 c 0,2.02 -1.22,2.944 -2.736,2.072 l -25.5,-14.719 a 6.53,6.53 0 0 1 -2.734,-5.226 v -33.337 c 0,-2.02 1.219,-2.943 2.735,-2.067 z"
       class="cls-27"
       id="rect1220" />
    <path
       style="opacity:0.16300001;fill:#cccccc"
       inkscape:connector-curvature="0"
       d="m 1515.419,362.266 25.5,14.72 a 6.532,6.532 0 0 1 2.736,5.226 v 33.336 c 0,2.02 -1.22,2.944 -2.736,2.072 l -25.5,-14.72 a 6.531,6.531 0 0 1 -2.735,-5.226 v -33.341 c 0,-2.02 1.219,-2.942 2.735,-2.067 z"
       class="cls-27"
       id="rect1222" />
    <path
       style="opacity:0.16300001;fill:#cccccc"
       inkscape:connector-curvature="0"
       d="m 1553.637,338.206 42.4,24.473 c 3.235,1.868 5.84,6.845 5.84,11.158 v 71.181 c 0,4.313 -2.6,6.283 -5.84,4.415 l -42.4,-24.477 c -3.236,-1.868 -5.84,-6.844 -5.84,-11.158 v -71.182 c 0,-4.314 2.6,-6.283 5.84,-4.415 z"
       class="cls-27"
       id="rect1224" />
    <path
       style="fill:#cccccc"
       inkscape:connector-curvature="0"
       d="m 1531.009,385.98 a 5.586,5.586 0 0 0 -0.488,-0.788 11.509,11.509 0 0 0 -1.646,-1.915 7.217,7.217 0 0 0 -1.013,-0.826 v 4.992 l 0.343,0.294 q 0.981,0.872 1.754,1.712 a 11.046,11.046 0 0 1 1.338,1.713 7.417,7.417 0 0 1 0.832,1.854 7.047,7.047 0 0 1 0.308,2.131 4.72,4.72 0 0 1 -0.343,2 1.836,1.836 0 0 1 -0.958,0.942 2.376,2.376 0 0 1 -1.411,0.1 6.371,6.371 0 0 1 -1.718,-0.678 v 2.532 l -0.94,-0.545 v -2.58 a 14.8,14.8 0 0 1 -2.478,-2.105 18.057,18.057 0 0 1 -2.152,-2.835 l 0.922,-1.783 a 8.2,8.2 0 0 0 0.579,0.961 q 0.381,0.557 0.887,1.163 0.506,0.606 1.1,1.192 a 11.689,11.689 0 0 0 1.266,1.069 v -4.996 a 2.249,2.249 0 0 0 -0.236,-0.208 l -0.214,-0.218 q -0.962,-0.891 -1.682,-1.67 a 10.086,10.086 0 0 1 -1.172,-1.594 7.52,7.52 0 0 1 -0.724,-1.647 7.075,7.075 0 0 1 -0.236,-1.872 5.056,5.056 0 0 1 0.308,-1.92 2.124,2.124 0 0 1 0.872,-1.066 2.041,2.041 0 0 1 1.3,-0.285 4.737,4.737 0 0 1 1.664,0.479 v -2.438 l 0.94,0.545 v 2.436 a 11.26,11.26 0 0 1 2.171,1.88 17.646,17.646 0 0 1 1.755,2.29 z m -0.742,8.2 a 3.32,3.32 0 0 0 -0.632,-1.957 13.455,13.455 0 0 0 -1.773,-2.013 v 4.775 a 2.425,2.425 0 0 0 1.773,0.445 q 0.633,-0.189 0.633,-1.25 z m -5.226,-11.018 a 3.272,3.272 0 0 0 0.525,1.822 10.738,10.738 0 0 0 1.628,1.832 v -4.751 q -1.1,-0.565 -1.628,-0.241 -0.525,0.301 -0.525,1.338 z"
       class="cls-25"
       id="path1237" />
    <path
       style="fill:#cccccc"
       inkscape:connector-curvature="0"
       d="m 1523.635,340.464 1.785,1.03 q -0.446,-1.448 -0.892,-2.865 a 9.377,9.377 0 0 1 -0.424,-2.714 4.514,4.514 0 0 1 0.335,-1.83 2.535,2.535 0 0 1 0.96,-1.112 2.227,2.227 0 0 1 1.405,-0.289 3.933,3.933 0 0 1 1.717,0.576 8.607,8.607 0 0 1 2.454,2.249 14.586,14.586 0 0 1 1.941,3.412 l -1.316,1.263 a 10.2,10.2 0 0 0 -1.405,-2.6 5.953,5.953 0 0 0 -1.717,-1.676 1.324,1.324 0 0 0 -1.54,-0.085 1.985,1.985 0 0 0 -0.6,1.675 5.949,5.949 0 0 0 0.134,1.207 q 0.134,0.613 0.335,1.294 0.2,0.654 0.424,1.345 0.245,0.707 0.446,1.447 l 4.06,2.344 v 2.5 l -3.547,-2.048 a 3.182,3.182 0 0 1 0.024,0.37 2.455,2.455 0 0 1 0.025,0.34 5.67,5.67 0 0 1 -0.469,2.406 5.866,5.866 0 0 1 -1.584,1.911 8.707,8.707 0 0 1 0.847,0.252 5.312,5.312 0 0 1 0.825,0.387 8.217,8.217 0 0 1 1.561,1.17 8.217,8.217 0 0 0 1.517,1.144 3.607,3.607 0 0 0 0.825,0.358 q 0.424,0.1 0.96,0.167 l 0.6,2.787 a 2.88,2.88 0 0 1 -1.227,-0.084 4.4,4.4 0 0 1 -1.294,-0.509 7.532,7.532 0 0 1 -1,-0.7 q -0.469,-0.39 -0.96,-0.852 -0.491,-0.436 -0.981,-0.834 a 7.662,7.662 0 0 0 -1.026,-0.711 7.185,7.185 0 0 0 -1.316,-0.581 7.381,7.381 0 0 0 -1.361,-0.369 l -0.58,-2.685 a 5.075,5.075 0 0 0 1.918,-1.867 4.894,4.894 0 0 0 0.6,-2.478 3.916,3.916 0 0 0 -0.025,-0.43 4.192,4.192 0 0 0 -0.024,-0.43 l -2.41,-1.391 z"
       class="cls-25"
       id="path1234" />
    <path
       style="fill:#cccccc"
       inkscape:connector-curvature="0"
       d="m 1589.351,375.246 -16.517,7.087 -4.332,-9.813 -6.966,9.486 -2.78,-5.588 -1.451,0.964 4.47,8.982 6.842,-9.329 3.869,8.766 18.067,-7.757 z"
       class="cls-25"
       id="path1240" />
    <path
       style="fill:#cccccc"
       inkscape:connector-curvature="0"
       d="m 1582.581,370.173 v 2.644 l 6.9,4.01 -0.7,8.347 1.972,1.424 0.941,-11.133 z"
       class="cls-25"
       id="path1242" />
    <path
       style="fill:#cccccc"
       inkscape:connector-curvature="0"
       d="m 1558.449,392.17 32.762,18.915 a 3.162,3.162 0 0 1 1.325,2.531 c 0,0.981 -0.591,1.425 -1.325,1 l -32.762,-18.915 a 3.162,3.162 0 0 1 -1.325,-2.531 c 0,-0.978 0.586,-1.425 1.325,-1 z"
       class="cls-25"
       id="rect1248" />
    <path
       style="fill:#cccccc"
       inkscape:connector-curvature="0"
       d="m 1558.449,399.587 32.762,18.915 a 3.162,3.162 0 0 1 1.325,2.531 c 0,0.981 -0.591,1.425 -1.325,1 l -32.762,-18.913 a 3.162,3.162 0 0 1 -1.325,-2.531 c 0,-0.98 0.587,-1.426 1.325,-1 z"
       class="cls-25"
       id="rect1250" />
    <path
       style="fill:#cccccc"
       inkscape:connector-curvature="0"
       d="m 1558.449,407.127 32.762,18.915 a 3.162,3.162 0 0 1 1.325,2.531 c 0,0.981 -0.591,1.425 -1.325,1 l -32.762,-18.918 a 3.162,3.162 0 0 1 -1.325,-2.531 c 0,-0.979 0.587,-1.425 1.325,-1 z"
       class="cls-25"
       id="rect1252" />
    <path
       style="fill:#ffcda8"
       inkscape:connector-curvature="0"
       d="m 1474.18,379.558 c 0,0 -0.624,-6.462 0,-6.236 a 12.1,12.1 0 0 0 9.864,-2.608 c 4.195,-3.515 -2.345,-4.15 -2.345,-4.15 0,0 5.178,0.522 4.328,-2.483 -0.85,-3.005 0.4,-6.519 1.984,-6.292 1.584,0.227 2.437,4.988 2.437,4.988 0,0 3.387,-4.3 3.67,-7.305 0.283,-3.005 1.942,-7.035 2.4,-6.525 0.458,0.51 1.587,10.77 0.17,17.4 -1.417,6.63 -2.43,8.673 -4.081,9.524 a 7.3,7.3 0 0 1 -4.025,0.4 v 6.967 z"
       class="cls-28"
       id="path1178" />
    <path
       style="fill:#ececec"
       inkscape:connector-curvature="0"
       d="m 1484.977,599.736 c 0,0 0.32,-8.458 -1.443,-12.546 -1.763,-4.088 -3.287,-4.61 -2.125,-8.7 a 17.636,17.636 0 0 1 2.886,-6.133 15.723,15.723 0 0 1 7.576,7.5 c 2.2,5.211 4.409,10.467 6.454,11.544 2.045,1.077 4.93,1.4 4.85,3.247 -0.08,1.847 -2.446,3.848 -7.095,3.688 -4.649,-0.16 -5.531,-1.6 -6.052,-4.129 -0.521,-2.529 -1.363,-6.334 -2.245,-6.373 -0.882,-0.039 -1.323,2.766 -1.483,6.334 -0.16,3.568 -0.28,5.888 -0.28,5.888 z"
       class="cls-9"
       id="path1149" />
    <path
       style="fill:#ffcda8"
       inkscape:connector-curvature="0"
       d="m 1461.265,492.917 -1.361,64.512 11.677,13.435 c 0,0 -4.535,-6.859 -3.741,-9.58 0.794,-2.721 6.576,-47.165 7.256,-52.493 0.68,-5.328 2.041,-15.533 2.041,-15.533 z"
       class="cls-28"
       id="path1160" />
    <path
       style="fill:#ffcda8"
       inkscape:connector-curvature="0"
       d="m 1481.087,501.162 c 0,0 3.527,8.178 3.688,13.95 0.161,5.772 -0.562,59.968 -0.562,59.968 l 8.017,6.574 c 0,0 5.888,-51.778 7.7,-66.064 1.812,-14.286 0.68,-21.088 0.68,-21.088 z"
       class="cls-28"
       id="path1162" />
    <path
       style="fill:#ececec"
       inkscape:connector-curvature="0"
       d="m 1460.683,581.859 c 0,0 0.32,-8.458 -1.443,-12.546 -1.763,-4.088 -3.287,-4.61 -2.125,-8.7 a 17.635,17.635 0 0 1 2.886,-6.133 15.723,15.723 0 0 1 7.576,7.5 c 2.2,5.211 4.409,10.467 6.454,11.545 2.045,1.078 4.93,1.4 4.85,3.247 -0.08,1.847 -2.445,3.848 -7.095,3.688 -4.65,-0.16 -5.532,-1.6 -6.054,-4.129 -0.522,-2.529 -1.363,-6.334 -2.245,-6.373 -0.882,-0.039 -1.322,2.766 -1.483,6.333 -0.161,3.567 -0.281,5.888 -0.281,5.888 z"
       class="cls-9"
       id="path1156" />
    <path
       style="fill:#726f78"
       inkscape:connector-curvature="0"
       d="m 1494.32,398.833 c 0,0 11.338,-15.317 12.244,-15.712 0.906,-0.395 20.306,9.248 20.51,10.3 0.204,1.052 -11.274,13.787 -12.076,14.653 -0.802,0.866 -12.728,8.959 -14.582,8.257 a 73.981,73.981 0 0 0 -8.237,-1.715 z"
       class="cls-29"
       id="path1187" />
    <path
       style="fill:#ffffff"
       inkscape:connector-curvature="0"
       d="m 1495.338,401.883 c 0,0 10.99,-14.384 11.985,-14.977 0.995,-0.593 13.939,6.894 14.049,7.346 0.11,0.452 -14.175,19.228 -15.643,19.1 -1.468,-0.128 -13.008,-1.051 -13.008,-1.051 z"
       class="cls-16"
       id="path1189" />
    <path
       style="fill:#784421"
       inkscape:connector-curvature="0"
       d="m 1502.893,415.611 c 0,0 14.569,-15.476 15.023,-17.63 a 14.311,14.311 0 0 1 2.061,-5.626 c 1.022,-1.263 3.425,-4.1 4.189,-3.407 1.044,0.947 -2.2,4.309 -1.884,5.016 0.316,0.707 3.207,-3.287 3.848,-4.228 0.641,-0.941 2.546,-3.788 3.227,-3.668 0.681,0.12 5.089,3.551 2.684,8.364 -2.405,4.813 -4.732,6.729 -6.612,7.33 l -1.884,0.6 c 0,0 -18.723,27.881 -20.424,28.5 -1.701,0.619 -4.932,-1.588 -4.081,-4.026 0.851,-2.438 3.854,-11.229 3.854,-11.229 z"
       class="cls-30"
       id="path1185" />
    <path
       style="fill:#42cd76"
       inkscape:connector-curvature="0"
       d="m 1480.839,378.606 a 28.87,28.87 0 0 0 -6.218,0.54 7.849,7.849 0 0 0 -3.489,1.372 c -1.479,0.013 -2.62,-2.172 -3.581,-1.556 0,-0.019 0.038,-0.356 0.038,-0.356 h -2.328 c -5.961,0.262 -8.994,11.839 -9.307,17.193 -0.567,9.184 -1.264,22.739 0.1,25.233 a 5.888,5.888 0 0 0 6.8,2.835 c 0.2,-0.05 -0.171,10.914 0,10.8 l 5.728,2.434 6.333,1.526 c 4.52,1.086 13.1,1.708 17.65,0.175 a 3.315,3.315 0 0 0 0.543,1.111 l 2.311,-2.119 0.217,-0.078 c 0,0 0.031,-0.134 0.037,-0.155 l 0.317,-0.289 c 0,0 -0.1,-0.336 -0.138,-0.456 0.07,-0.291 -0.321,-6.584 -0.288,-6.764 0.08,-0.425 5.662,3.425 7.973,0 2.311,-3.425 1.412,-10.7 0.61,-25.445 -0.802,-14.745 -3.506,-16.3 -8.583,-19 a 19.234,19.234 0 0 0 -1.915,-0.871 l 0.319,0.067 c 0,0 -6.3,-3.048 -10.647,-5.649 -2.175,-1.31 10e-4,-0.478 -2.482,-0.548 z"
       class="cls-31"
       id="path1172" />
    <path
       style="fill:#f6f6f6"
       inkscape:connector-curvature="0"
       d="m 1462.799,431.977 a 80.941,80.941 0 0 1 -1.752,16.517 c -1.924,9.3 -5.391,15.284 -4.252,24.015 1.139,8.731 2.665,19.844 3.515,20.918 0.85,1.074 7.88,6.746 19.614,7.88 11.734,1.134 20.861,1.021 21.2,0.057 0.339,-0.964 4.18,-17.991 1.935,-32.425 -2.245,-14.434 -2.325,-14.51 -2.325,-14.51 l -4.955,-18.567 c 0,0 -3.391,2.447 -12.993,2.255 a 37.311,37.311 0 0 1 -16.358,-3.729 12.715,12.715 0 0 1 -3.629,-2.41 z"
       class="cls-32"
       id="path1158" />
    <path
       style="fill:#e2e2e2"
       inkscape:connector-curvature="0"
       d="m 1293.672,200.417 a 6.09,6.09 0 0 0 -3.286,0.953 l -4.83,2.7 2.181,0.879 a 12.439,12.439 0 0 0 -0.623,4.082 v 121.545 c 0,7.711 5.376,17.023 12.054,20.879 l 35.608,20.558 a 11.128,11.128 0 0 0 5.234,1.654 l -1.291,2.93 4.947,-3.955 c 1.963,-1.34 3.162,-3.951 3.162,-7.589 V 243.508 c 0,-7.711 -5.376,-17.022 -12.054,-20.879 l -35.6,-20.557 a 10.9,10.9 0 0 0 -5.5,-1.655 z"
       class="cls-33"
       id="rect891" />
    <path
       style="fill:#e2e2e2"
       inkscape:connector-curvature="0"
       d="m 1292.563,204.565 c -5.779,-3.339 -10.439,0.181 -10.439,7.892 v 121.547 c 0,7.711 4.656,16.607 10.439,19.945 l 38.842,22.423 c 5.779,3.339 10.439,-0.181 10.439,-7.892 V 246.934 c 0,-7.711 -4.656,-16.607 -10.439,-19.945 z m 1.622,3.829 3.942,2.275 a 1.036,1.036 0 0 1 0.207,0.449 8.171,8.171 0 0 0 0.772,3.75 c 0.95,1.933 1.9,2.462 3.621,3.5 1.255,0.753 4.361,2.552 6.316,3.683 v 0 l 1.146,0.661 0.725,0.42 v 0 c 2.508,1.447 8.9,5.133 10.323,5.924 1.722,0.954 2.671,1.526 3.621,0.686 0.95,-0.84 0.667,-2.4 0.772,-2.859 a 0.24,0.24 0 0 1 0.207,-0.21 l 3.946,2.267 c 5.561,3.21 10.031,11.761 10.031,19.174 l -0.961,100.747 c 0,7.414 -4.47,10.794 -10.031,7.587 l -35.596,-20.545 c -5.561,-3.21 -5.93,-10.693 -5.93,-18.1 l 2.852,-100.92 c 0,-7.414 -1.526,-11.692 4.034,-8.483 z"
       class="cls-33"
       id="rect897" />
    <path
       style="fill:#ffffff"
       inkscape:connector-curvature="0"
       d="m 1293.157,204.14 q -0.258,-0.127 -0.512,-0.233 0.256,0.107 0.512,0.233 z m -0.512,-0.233 q -0.358,-0.15 -0.705,-0.262 0.348,0.112 0.705,0.262 z m 39.8,23.6 q 0.247,0.173 0.492,0.361 -0.243,-0.186 -0.492,-0.36 z m 0.492,0.361 q 0.358,0.275 0.705,0.578 -0.349,-0.306 -0.706,-0.578 z m 1.3,1.115 q 0.218,0.207 0.431,0.424 -0.215,-0.218 -0.432,-0.424 z m -42.902,-25.506 c -0.14,-0.033 -0.279,-0.061 -0.417,-0.085 0.138,0.024 0.278,0.053 0.417,0.085 z m -2.235,-0.114 q -0.218,0.032 -0.424,0.082 a 3.354,3.354 0 0 1 0.424,-0.082 z m 47.385,28.177 q 0.218,0.289 0.424,0.587 -0.208,-0.3 -0.424,-0.586 z m -48.302,-27.954 a 4.9,4.9 0 0 0 -0.508,0.21 4.9,4.9 0 0 1 0.508,-0.21 z m 49.22,29.269 q 0.261,0.4 0.508,0.814 -0.247,-0.409 -0.508,-0.813 z m -41.885,-24.46 c -5.4,-3.21 -9.743,0.173 -9.743,7.587 l -1.324,107.07 c 0,7.414 4.345,15.964 9.743,19.174 l 34.556,20.55 c 5.4,3.21 9.743,-0.173 9.743,-7.587 l 1.324,-107.071 c 0,-7.414 -4.345,-15.964 -9.743,-19.174 l -3.827,-2.276 a 0.236,0.236 0 0 0 -0.2,0.21 c -0.1,0.455 0.173,2.023 -0.749,2.859 -0.922,0.836 -1.844,0.268 -3.515,-0.686 -1.385,-0.791 -7.588,-4.476 -10.023,-5.924 v 0 l -0.7,-0.42 -1.112,-0.661 v 0 c -1.9,-1.13 -4.915,-2.93 -6.133,-3.683 -1.671,-1.034 -2.594,-1.563 -3.515,-3.5 a 8.385,8.385 0 0 1 -0.749,-3.75 1.048,1.048 0 0 0 -0.2,-0.449 z m 42.954,26.257 q 0.135,0.25 0.266,0.5 -0.134,-0.254 -0.269,-0.5 z m 0.266,141.981 c -0.087,0.065 -0.175,0.129 -0.266,0.188 0.087,-0.059 0.175,-0.122 0.263,-0.186 z m -51.06,-29.372 q 0.248,0.414 0.508,0.815 -0.263,-0.4 -0.511,-0.815 z m 50.237,29.875 a 4.894,4.894 0 0 1 -0.508,0.21 4.894,4.894 0 0 0 0.5,-0.212 z m -49.234,-28.325 q 0.208,0.3 0.424,0.587 -0.219,-0.289 -0.429,-0.588 z m 48.234,28.682 q -0.209,0.05 -0.424,0.082 0.21,-0.033 0.42,-0.082 z m -45.99,-25.963 q 0.206,0.21 0.417,0.41 c -0.145,-0.134 -0.285,-0.27 -0.422,-0.41 z m 43.747,26.015 c -0.142,-0.024 -0.286,-0.053 -0.431,-0.088 0.141,0.034 0.283,0.06 0.426,0.088 z m -42.728,-25.059 q 0.349,0.3 0.705,0.578 -0.361,-0.275 -0.71,-0.578 z m 0.705,0.578 q 0.254,0.2 0.512,0.376 -0.261,-0.181 -0.517,-0.376 z m 41,24.224 a 7.4,7.4 0 0 1 -0.705,-0.262 c 0.239,0.1 0.474,0.187 0.706,0.262 z m -0.705,-0.262 q -0.244,-0.1 -0.492,-0.223 0.25,0.121 0.493,0.223 z m -39.515,-23.4 q 0.255,0.169 0.514,0.327 -0.261,-0.157 -0.517,-0.326 z m 38.734,23.033 q -0.255,-0.134 -0.514,-0.288 0.26,0.154 0.515,0.288 z"
       class="cls-16"
       id="rect908" />
    <path
       style="fill:#393939"
       inkscape:connector-curvature="0"
       d="m 1298.635,261.28 11.347,22.058 -1.419,1.119 -11.347,-22.059 z"
       class="cls-34"
       data-name="Path 5"
       id="Path_5" />
    <path
       style="fill:#393939"
       inkscape:connector-curvature="0"
       d="m 1311.873,252.124 11.347,22.058 -1.419,1.119 -11.347,-22.058 z"
       class="cls-34"
       data-name="Path 6"
       id="Path_6" />
    <path
       style="fill:#393939"
       inkscape:connector-curvature="0"
       d="m 1322.747,277.785 -11.347,8.956 -1.419,-2.757 11.347,-8.955 z"
       class="cls-34"
       data-name="Path 7"
       id="Path_7" />
    <path
       style="fill:#393939"
       inkscape:connector-curvature="0"
       d="m 1309.508,252.051 -11.347,8.955 -1.419,-2.757 11.347,-8.955 z"
       class="cls-34"
       data-name="Path 8"
       id="Path_8" />
    <path
       style="fill:#ffd42a"
       inkscape:connector-curvature="0"
       d="m 1309.982,245.863 3.31,6.434 -3.31,2.614 -3.31,-6.432 z"
       class="cls-35"
       data-name="Path 9"
       id="Path_9" />
    <path
       style="fill:#ffd42a"
       inkscape:connector-curvature="0"
       d="m 1297.216,255.937 3.31,6.434 -3.31,2.611 -3.31,-6.433 z"
       class="cls-35"
       data-name="Path 10"
       id="Path_10" />
    <path
       style="fill:#ffd42a"
       inkscape:connector-curvature="0"
       d="m 1309.982,280.753 3.31,6.434 -3.31,2.611 -3.31,-6.432 z"
       class="cls-35"
       data-name="Path 11"
       id="Path_11" />
    <path
       style="fill:#ffd42a"
       inkscape:connector-curvature="0"
       d="m 1322.747,270.677 3.31,6.434 -3.31,2.611 -3.31,-6.432 z"
       class="cls-35"
       data-name="Path 12"
       id="Path_12" />
    <path
       style="fill:#ececec"
       inkscape:connector-curvature="0"
       d="m 1235.038,446.087 c 0,0 -3.389,8.234 0.292,10.092 3.681,1.858 14.245,-4.335 17.852,-5.9 3.607,-1.565 7.141,-5.065 6.3,-7.069 -0.841,-2.004 -4.408,-4.846 -10.6,-1.713 a 60.821,60.821 0 0 1 -13.845,4.591 z"
       class="cls-9"
       id="path1085" />
    <path
       style="fill:#ececec"
       inkscape:connector-curvature="0"
       d="m 1257.063,457.96 c 0,0 -3.572,9.254 0.307,11.34 3.879,2.086 15.019,-4.873 18.822,-6.634 3.803,-1.761 7.529,-5.692 6.646,-7.943 -0.883,-2.251 -4.648,-5.445 -11.178,-1.924 a 61.316,61.316 0 0 1 -14.6,5.162 z"
       class="cls-9"
       id="path1087" />
    <path
       style="fill:#f6f6f6"
       inkscape:connector-curvature="0"
       d="m 1232.209,354.768 c 0,0 1.654,30.761 2.32,35.958 0.666,5.197 -0.8,56.908 0.267,58.373 1.067,1.465 13.978,-0.673 13.712,-4.005 -0.266,-3.332 0.415,-43.439 1.081,-48.1 0.666,-4.661 0.666,-25.187 1.2,-25.055 0.534,0.132 3.865,27.32 3.865,35.184 0,7.864 0.267,54.908 2.133,55.442 1.866,0.534 13.324,-1.559 13.324,-3.691 0,-2.132 1.6,-45.22 1.735,-52.55 0.135,-7.33 -0.025,-49.185 -0.425,-49.985 -0.4,-0.8 -39.213,-1.566 -39.213,-1.566 z"
       class="cls-32"
       id="path1083" />
    <path
       style="fill:#ffcda8"
       inkscape:connector-curvature="0"
       d="m 1301.931,287.976 c 0,0 0.565,-1.395 0,-2.035 -0.565,-0.64 -4.785,-10.14 -4.559,-10.852 0.226,-0.712 1.62,-0.829 2.374,0.264 0.754,1.093 1.09,2.072 1.318,1.09 0.228,-0.982 1.187,-7.159 1.884,-8.987 0.697,-1.828 1.417,-2.478 1.8,-1.585 0.383,0.893 0.04,4.223 0.186,4.555 0.146,0.332 0.919,0.067 1.359,0.679 0.44,0.612 0.12,1.4 0.6,1.519 0.48,0.119 1.332,-0.026 1.854,0.493 0.522,0.519 0.266,1.6 0.746,1.9 0.48,0.3 1.359,-0.06 1.635,1.079 0.276,1.139 -0.465,4.879 -1.146,7.233 -0.853,2.344 -2.105,3.943 -2.105,4.716 0,0.773 -5.948,-0.079 -5.948,-0.079 z"
       class="cls-28"
       id="path1089" />
    <path
       style="fill:#ffcda8"
       inkscape:connector-curvature="0"
       d="m 1268.228,246.401 c 0,0 -0.524,11.626 -0.743,13.987 a 20,20 0 0 1 -2.928,8.351 c -1.661,2.491 -6.6,4.371 -7.523,3.978 -0.923,-0.393 -4.2,-22.815 -2.4,-23.646 1.8,-0.831 13.593,-2.666 13.593,-2.666 z"
       class="cls-28"
       id="path945" />
    <path
       style="fill:#cd4250"
       inkscape:connector-curvature="0"
       d="m 1237.508,278.121 c -0.567,0 -11.458,6.18 -11.916,13.219 -0.458,7.039 -2.94,32.142 -0.592,36.222 1.192,2.069 3.964,6.744 6.448,10.914 0.011,0.56 0.017,1.082 0,1.532 -0.248,7.792 -0.074,9.286 0.576,12.9 0.65,3.614 -0.174,8.924 12.73,11.558 12.904,2.634 26.7,0.076 26.7,-9.015 0,-6.094 -1.185,-18.656 -0.731,-27.4 a 29.968,29.968 0 0 1 2.241,-8.914 6.263,6.263 0 0 0 0.155,-1.579 c 10.949,8.164 22.889,16.223 26.485,15.868 7.081,-0.7 9.1,-42.235 9.359,-44.159 0.259,-1.924 -6.818,-2.712 -7.781,-1.924 -0.963,0.788 -5.076,25.279 -6.475,26.152 -1.399,0.873 -22.209,-21.76 -28.153,-26.135 -5.944,-4.375 -17.566,-4.386 -17.566,-4.386 0,0 0.736,3.773 1.461,7.455 -4.718,-0.7 -9.352,-1.321 -13.172,-1.807 z"
       class="cls-36"
       id="path951" />
    <path
       style="fill:#79391d"
       inkscape:connector-curvature="0"
       d="m 1237.326,241.987 c 0,0 3.54,-7.3 13.811,-7.518 10.271,-0.218 18.4,6.819 17.4,11.845 -1,5.026 -3.147,5.157 -4.2,8.786 -1.053,3.629 -1.005,6.513 -2.181,6.556 -1.176,0.043 -0.524,-2.972 -1.662,-3.147 -1.138,-0.175 -3.19,0.568 -3.1,5.507 0.09,4.939 -1.088,18.379 -0.9,22.706 0.188,4.327 -0.111,10.651 -6.632,13.632 -6.521,2.981 -11.922,0.313 -14.339,-3.034 -2.417,-3.347 -4.068,-6.358 -2.6,-13.871 a 89.527,89.527 0 0 0 2.248,-20.03 c 0.248,-9.767 -0.248,-14.9 0.741,-18.173 0.989,-3.273 1.423,-3.258 1.423,-3.258 z"
       class="cls-37"
       id="path934" />
    <path
       inkscape:connector-curvature="0"
       d="m 1466.082,347.928 c 0,0 3.54,-7.3 13.811,-7.518 10.271,-0.218 18.4,6.819 17.4,11.845 -1,5.026 -3.147,5.157 -4.2,8.786 -1.053,3.629 -1.005,6.513 -2.181,6.556 -1.176,0.043 -0.524,-2.972 -1.662,-3.147 -1.138,-0.175 -3.19,0.568 -3.1,5.507 0.09,4.939 1.132,0.761 1.318,5.088 0.186,4.327 -0.112,10.651 -6.632,13.632 -6.52,2.981 -11.923,0.313 -14.339,-3.034 -2.416,-3.347 -4.068,-6.358 -2.6,-13.871 1.576,-8.048 -0.219,7.355 0.029,-2.412 0.248,-9.767 -0.247,-14.9 0.741,-18.173 0.988,-3.273 1.423,-3.258 1.423,-3.258 z"
       id="path4381" />
    <path
       style="fill:#ececec"
       inkscape:connector-curvature="0"
       d="m 1019.804,546.762 c 0,0 4.853,11.794 -0.418,14.456 -5.271,2.662 -20.4,-6.215 -25.571,-8.454 -5.171,-2.239 -10.228,-7.254 -9.028,-10.124 1.2,-2.87 6.314,-6.941 15.186,-2.453 a 87.127,87.127 0 0 0 19.83,6.576 z"
       class="cls-9"
       id="path1229" />
    <path
       style="fill:#ececec"
       inkscape:connector-curvature="0"
       d="m 1003.578,557.104 c 0,0 4.853,11.794 -0.418,14.456 -5.271,2.662 -20.4,-6.215 -25.571,-8.454 -5.171,-2.239 -10.228,-7.254 -9.028,-10.124 1.2,-2.87 6.314,-6.941 15.186,-2.453 a 87.139,87.139 0 0 0 19.83,6.576 z"
       class="cls-9"
       id="path1181" />
    <path
       style="fill:#f6f6f6"
       inkscape:connector-curvature="0"
       d="m 1002.382,547.723 c 0,0 -1.291,-67.7 -0.431,-74.007 0.86,-6.307 7.028,-12.335 18.359,-8.462 11.331,3.873 44.606,12.335 44.606,12.335 l 5.88,39.586 c 0,0 -46.9,-27.395 -49.052,-23.951 -2.152,3.444 0.717,51.2 -0.287,55.075 -1.004,3.875 -10.112,3.3 -12.55,2.8 -2.438,-0.5 -6.526,-3.37 -6.526,-3.37 z"
       class="cls-32"
       id="path1128" />
    <path
       style="opacity:0.41000001;fill:#f9f9f9"
       inkscape:connector-curvature="0"
       d="m 1166.898,487.93 c -0.917,0 -1.841,0.025 -2.768,0.086 v 0 c 0,0 -4.389,1.208 -5.416,3.18 -2,1.157 -14.666,7.7 -20.908,11.585 -9.844,-3.876 -10.459,-5.733 -11.652,-5.394 l -38.505,21.95 -24.986,-14.242 -48.138,28.628 5.277,13.033 60.667,40.179 61.92,-36.393 -10.44,-5.95 5.767,-3.286 27.494,-15.65 a 16.065,16.065 0 0 0 -4.061,-11.184 c 0.906,-0.153 1.842,-0.345 2.8,-0.579 7.711,-1.886 17.711,-5.691 18.252,-13.164 0.338,-4.671 -3.636,-8.413 -7.43,-10.6 a 15.123,15.123 0 0 0 -5.661,-2.125 q -1.1,-0.069 -2.217,-0.072 z"
       class="cls-38"
       id="path1363" />
    <path
       style="fill:#f6f6f6"
       inkscape:connector-curvature="0"
       d="m 986.769,556.286 c 0,0 -1.291,-67.7 -0.431,-74.007 0.86,-6.307 7.028,-12.335 18.359,-8.462 11.331,3.873 44.606,12.335 44.606,12.335 l 5.88,39.586 c 0,0 -46.9,-27.395 -49.052,-23.952 -2.152,3.443 0.717,51.2 -0.287,55.075 -1.004,3.875 -10.112,3.3 -12.55,2.8 -2.438,-0.5 -6.526,-3.37 -6.526,-3.37 z"
       class="cls-32"
       id="path1126" />
    <path
       style="fill:#ececec"
       inkscape:connector-curvature="0"
       d="m 1052.21,527.386 c 0,0 0,3.353 0.274,6.992 a 47.044,47.044 0 0 0 0.664,5.336 7.537,7.537 0 0 0 1.451,3.738 15.651,15.651 0 0 0 2.072,1.526 c 1.036,0.689 2.4,1.559 3.993,2.55 3.189,1.982 7.305,4.458 11.588,7 8.555,5.075 17.73,10.382 21.326,12.4 a 30.746,30.746 0 0 1 6.733,4.8 4,4 0 0 1 1.015,1.256 c -0.193,0.157 -0.495,0.388 -0.894,0.666 -0.829,0.58 -2.024,1.36 -3.469,2.269 -2.893,1.819 -6.794,4.162 -10.9,6.569 -8.216,4.815 -17.316,9.922 -20.885,11.667 -7.123,3.489 -10.556,2.518 -14.254,1.09 -0.787,-0.3 -4,-2.038 -8.2,-4.464 -4.2,-2.426 -9.494,-5.573 -14.746,-8.8 -5.252,-3.227 -10.467,-6.542 -14.523,-9.293 -2.028,-1.377 -3.771,-2.617 -5.074,-3.633 a 14.193,14.193 0 0 1 -2.392,-2.194 c -2.367,-3.759 0.89,-67.322 0.89,-67.322 l -1.991,0.91 c 0,0 -3.406,64.337 -0.6,68.793 a 11.72,11.72 0 0 0 2.669,2.5 c 1.333,1.039 3.086,2.29 5.125,3.677 4.079,2.771 9.306,6.082 14.566,9.315 5.26,3.233 10.553,6.381 14.769,8.813 4.216,2.432 7.267,4.119 8.344,4.534 3.759,1.446 7.785,2.481 15.292,-1.2 3.744,-1.836 12.786,-6.915 21.029,-11.746 4.121,-2.415 8.029,-4.76 10.96,-6.6 1.465,-0.921 2.684,-1.716 3.58,-2.342 0.447,-0.313 0.811,-0.581 1.112,-0.83 a 5.08,5.08 0 0 0 0.43,-0.393 1.951,1.951 0 0 0 0.636,-0.966 l 0.894,-2.239 -0.23,-0.559 a 8.2,8.2 0 0 0 -1.62,-2.088 31.747,31.747 0 0 0 -6.963,-4.962 c -3.575,-2 -12.757,-7.305 -21.306,-12.381 -4.274,-2.536 -8.389,-5.016 -11.568,-6.992 -1.59,-0.988 -2.944,-1.854 -3.966,-2.53 a 19.125,19.125 0 0 1 -1.912,-1.388 6.951,6.951 0 0 1 -1.035,-2.874 44.9,44.9 0 0 1 -0.625,-5.017 c -0.264,-3.5 -0.265,-6.743 -0.265,-6.743 z"
       class="cls-9"
       id="path985" />
    <path
       style="fill:#cd9465"
       inkscape:connector-curvature="0"
       d="m 1059.412,401.619 a 6.59,6.59 0 0 1 1.318,4.463 13.607,13.607 0 0 1 -0.862,4.614 c 0,0 9.737,2.383 15.365,-0.654 5.628,-3.037 4.97,-9.28 4.97,-9.28 l -1.417,-5.071 z"
       class="cls-39"
       id="path954" />
    <path
       style="fill:#d09963"
       inkscape:connector-curvature="0"
       d="m 1053.357,425.714 c 0,0 -3.854,-2.789 -5.832,-4.158 -1.978,-1.369 -6.187,-6.694 -5.426,-8.064 0.761,-1.37 3.043,-1.115 4.31,0.507 1.267,1.622 2.129,0.71 1.318,-0.254 -0.811,-0.964 -5.223,-2.789 -7.15,0.254 -1.927,3.043 -3.246,-2.079 -1.775,-3.6 1.471,-1.521 8.773,-3.853 13.59,1.417 4.817,5.27 5.477,8.62 5.477,8.62 z"
       class="cls-40"
       id="path1023" />
    <path
       style="fill:#999999"
       inkscape:connector-curvature="0"
       d="m 1035.039,422.111 a 50.46,50.46 0 0 1 5.436,-8.332 c 2.944,-3.454 22.257,-21.696 22.257,-21.696 l 2.642,2.388 c 0,0 -19.1,19.154 -22.1,21.948 a 51.133,51.133 0 0 1 -8.231,5.69 z"
       class="cls-41"
       id="path1025" />
    <path
       style="fill:#f2f2f2"
       inkscape:connector-curvature="0"
       d="m 1001.785,426.793 c 2.525,0.023 3.253,0.536 3.954,1.96 0.701,1.424 -1.75,3.966 3.358,5.243 5.108,1.277 16.825,1.085 18.955,-7.083 2.13,-8.168 -13.168,-14.83 -24.026,-12.786 -10.858,2.044 -13.708,6.746 -10.9,10.153 2.808,3.407 6.132,2.49 8.658,2.514 z"
       class="cls-7"
       id="path1995" />
    <path
       style="fill:#aa0000"
       inkscape:connector-curvature="0"
       d="m 1002.615,420.881 c 1.306,0.754 1.447,1.894 0.317,2.547 a 4.9,4.9 0 0 1 -4.411,-0.183 c -1.306,-0.754 -1.447,-1.894 -0.317,-2.547 a 4.9,4.9 0 0 1 4.411,0.183 z"
       class="cls-42"
       id="path1997" />
    <path
       style="fill:#445500"
       inkscape:connector-curvature="0"
       d="m 1008.67,416.968 c 1.306,0.754 1.447,1.894 0.317,2.547 a 4.9,4.9 0 0 1 -4.411,-0.183 c -1.306,-0.754 -1.447,-1.894 -0.317,-2.547 a 4.9,4.9 0 0 1 4.411,0.183 z"
       class="cls-43"
       id="circle1999" />
    <path
       style="fill:#800066"
       inkscape:connector-curvature="0"
       d="m 1017.98,417.645 c 1.306,0.754 1.447,1.894 0.317,2.547 a 4.9,4.9 0 0 1 -4.411,-0.183 c -1.306,-0.754 -1.447,-1.894 -0.317,-2.547 a 4.9,4.9 0 0 1 4.411,0.183 z"
       class="cls-44"
       id="circle2001" />
    <path
       style="fill:#ffcc00"
       inkscape:connector-curvature="0"
       d="m 1023.43,422.688 c 1.306,0.754 1.447,1.894 0.317,2.547 a 4.9,4.9 0 0 1 -4.411,-0.183 c -1.306,-0.754 -1.447,-1.894 -0.317,-2.547 a 4.9,4.9 0 0 1 4.411,0.183 z"
       class="cls-45"
       id="circle2003" />
    <path
       style="fill:#d09963"
       inkscape:connector-curvature="0"
       d="m 1012.758,449.335 a 15.177,15.177 0 0 1 3.652,-4.513 c 2.586,-2.231 4.513,-2.637 4.463,-3.143 -0.05,-0.506 -8.266,-8.012 -9.127,-10.294 -0.861,-2.282 -1.674,-4.716 -2.636,-4.564 -0.962,0.152 -0.382,3.83 -0.179,4.844 0.203,1.014 -0.406,2.181 -0.913,1.417 -0.507,-0.764 -6.56,-7.683 -7.83,-7.784 -1.27,-0.101 -2.266,10.482 -0.9,11.851 1.366,1.369 13.47,12.185 13.47,12.185 z"
       class="cls-40"
       id="path988" />
    <path
       style="fill:#ffd42a"
       inkscape:connector-curvature="0"
       d="m 1080.05,400.85 c 0,0 0.408,4.161 -4.714,7.307 -5.122,3.146 -14.96,0.763 -14.96,0.763 l -2.223,6.517 c -0.543,0.379 -1.181,1 -2.886,2.1 a 70.819,70.819 0 0 0 -6.652,5.926 24.372,24.372 0 0 0 -3.828,3.712 c -3.944,5.806 -4.087,26.1 -5.163,27.394 -1.076,1.294 -19.556,-14.232 -19.556,-14.232 0,0 -1.672,-0.864 -5.628,2.484 -3.956,3.348 -3.044,6.794 -3.044,6.794 v 0 c 0,0 33.236,33.356 40.127,27.186 4.506,-4.036 7.7,-12.9 8.847,-23.356 l 4.993,11.047 37.647,-26.892 c 0,0 1.223,-23.592 -5.016,-30.333 -6.239,-6.741 -15.6,-5.91 -15.854,-5.809 a 0.078,0.078 0 0 0 -0.053,0.056 z"
       class="cls-35"
       id="path952" />
    <path
       style="fill:#d09963"
       inkscape:connector-curvature="0"
       d="m 1054.976,373.116 c 0.172,1.207 -1.727,28 0.218,30.047 1.945,2.047 8.032,2.438 15.132,-0.645 a 13.226,13.226 0 0 0 7.889,-9.9 z"
       class="cls-40"
       id="path946" />
    <path
       style="fill:#4c2d0f"
       inkscape:connector-curvature="0"
       d="m 1054.904,367.094 c 0,0 -2.008,4.877 0.789,7.458 2.797,2.581 2.869,6.67 2.8,9.18 -0.069,2.51 0.793,3.264 2.228,5.561 1.435,2.297 0.856,3.261 2.147,3.261 1.291,0 4.16,0.788 4.3,1.864 0.14,1.076 4.948,7.959 7.6,8.534 2.652,0.575 9.249,-0.791 11.116,-8.821 1.867,-8.03 4.255,-21.4 -3.606,-27.1 -7.861,-5.7 -21.564,-4.668 -23.93,-2.947 a 20.538,20.538 0 0 0 -3.442,3.011 z"
       class="cls-46"
       id="path1134" />
    <path
       style="fill:#dfdfdf"
       inkscape:connector-curvature="0"
       d="m 1104.776,421.226 -0.036,0.023 -0.014,-0.006 v 0.011 l -49.845,28.976 c 0,0 -10.953,28.8 -14.4,41.784 -1.8,6.77 -0.724,14.817 0.713,21.014 -14.329,-7.965 -36.807,-19.1 -38.143,-19.2 -1.938,-0.144 -2.509,8.461 -2.509,8.461 0,0 29.453,16.633 42.459,23.665 -0.875,2.428 -1.829,5.228 -1.565,5.583 0.01,0 0.013,0.01 0.02,0.01 l 4.414,3.3 0.031,-0.078 c 0.016,0.04 0.035,0.076 0.07,0.076 0.71,0 55.374,-31.341 56.489,-32.657 1.115,-1.316 -2.334,-5.883 -5.174,-23.123 -2.84,-17.24 11.97,-54.563 11.97,-54.563 l -0.093,0.053 -4.4,-3.288 z"
       class="cls-47"
       id="path1130" />
  </g>
</svg>
